<?xml version="1.0" encoding="UTF-8" standalone="no"?>
<!DOCTYPE svg PUBLIC "-//W3C//DTD SVG 1.1//EN"
 "http://www.w3.org/Graphics/SVG/1.1/DTD/svg11.dtd">
<!-- Generated by graphviz version 13.1.2 (0)
 -->
<!-- Title: snakemake_dag Pages: 1 -->
<svg width="839pt" height="620pt"
 viewBox="0.00 0.00 839.00 620.00" xmlns="http://www.w3.org/2000/svg" xmlns:xlink="http://www.w3.org/1999/xlink">
<g id="graph0" class="graph" transform="scale(1 1) rotate(0) translate(4 616)">
<title>snakemake_dag</title>
<polygon fill="white" stroke="none" points="-4,4 -4,-616 834.82,-616 834.82,4 -4,4"/>
<!-- 0 -->
<g id="node1" class="node">
<title>0</title>
<path fill="none" stroke="#d85656" stroke-width="2" d="M335.69,-36C335.69,-36 305.69,-36 305.69,-36 299.69,-36 293.69,-30 293.69,-24 293.69,-24 293.69,-12 293.69,-12 293.69,-6 299.69,0 305.69,0 305.69,0 335.69,0 335.69,0 341.69,0 347.69,-6 347.69,-12 347.69,-12 347.69,-24 347.69,-24 347.69,-30 341.69,-36 335.69,-36"/>
<text xml:space="preserve" text-anchor="middle" x="320.69" y="-14.12" font-family="sans" font-size="10.00">all</text>
</g>
<!-- 1 -->
<g id="node2" class="node">
<title>1</title>
<path fill="none" stroke="#c6d856" stroke-width="2" d="M496.44,-612C496.44,-612 382.94,-612 382.94,-612 376.94,-612 370.94,-606 370.94,-600 370.94,-600 370.94,-588 370.94,-588 370.94,-582 376.94,-576 382.94,-576 382.94,-576 496.44,-576 496.44,-576 502.44,-576 508.44,-582 508.44,-588 508.44,-588 508.44,-600 508.44,-600 508.44,-606 502.44,-612 496.44,-612"/>
<text xml:space="preserve" text-anchor="middle" x="439.69" y="-590.12" font-family="sans" font-size="10.00">download_and_extract_data</text>
</g>
<!-- 1&#45;&gt;0 -->
<g id="edge11" class="edge">
<title>1&#45;&gt;0</title>
<path fill="none" stroke="grey" stroke-width="2" d="M370,-593.58C264.45,-592.96 71.11,-585.42 21.69,-540 -8.08,-512.63 2.69,-491.45 2.69,-451 2.69,-451 2.69,-451 2.69,-161 2.69,-40.91 194.13,-21.69 279.93,-19.1"/>
<polygon fill="grey" stroke="grey" stroke-width="2" points="279.81,-22.61 289.73,-18.89 279.65,-15.61 279.81,-22.61"/>
</g>
<!-- 2 -->
<g id="node3" class="node">
<title>2</title>
<path fill="none" stroke="#56d87b" stroke-width="2" d="M383.69,-540C383.69,-540 353.69,-540 353.69,-540 347.69,-540 341.69,-534 341.69,-528 341.69,-528 341.69,-516 341.69,-516 341.69,-510 347.69,-504 353.69,-504 353.69,-504 383.69,-504 383.69,-504 389.69,-504 395.69,-510 395.69,-516 395.69,-516 395.69,-528 395.69,-528 395.69,-534 389.69,-540 383.69,-540"/>
<text xml:space="preserve" text-anchor="middle" x="368.69" y="-518.12" font-family="sans" font-size="10.00">filter_gff</text>
</g>
<!-- 1&#45;&gt;2 -->
<g id="edge13" class="edge">
<title>1&#45;&gt;2</title>
<path fill="none" stroke="grey" stroke-width="2" d="M421.78,-575.34C413.93,-567.6 404.56,-558.36 395.88,-549.81"/>
<polygon fill="grey" stroke="grey" stroke-width="2" points="398.59,-547.56 389.01,-543.03 393.67,-552.54 398.59,-547.56"/>
</g>
<!-- 5 -->
<g id="node6" class="node">
<title>5</title>
<path fill="none" stroke="#56d0d8" stroke-width="2" d="M120.44,-540C120.44,-540 42.94,-540 42.94,-540 36.94,-540 30.94,-534 30.94,-528 30.94,-528 30.94,-516 30.94,-516 30.94,-510 36.94,-504 42.94,-504 42.94,-504 120.44,-504 120.44,-504 126.44,-504 132.44,-510 132.44,-516 132.44,-516 132.44,-528 132.44,-528 132.44,-534 126.44,-540 120.44,-540"/>
<text xml:space="preserve" text-anchor="middle" x="81.69" y="-518.12" font-family="sans" font-size="10.00">make_proteome_db</text>
</g>
<!-- 1&#45;&gt;5 -->
<g id="edge16" class="edge">
<title>1&#45;&gt;5</title>
<path fill="none" stroke="grey" stroke-width="2" d="M370.03,-580.59C312.88,-570.25 229.91,-554.86 157.69,-540 153.72,-539.18 149.64,-538.32 145.52,-537.44"/>
<polygon fill="grey" stroke="grey" stroke-width="2" points="146.63,-534.1 136.11,-535.4 145.14,-540.94 146.63,-534.1"/>
</g>
<!-- 6 -->
<g id="node7" class="node">
<title>6</title>
<path fill="none" stroke="#56d8c9" stroke-width="2" d="M138.32,-396C138.32,-396 81.07,-396 81.07,-396 75.07,-396 69.07,-390 69.07,-384 69.07,-384 69.07,-372 69.07,-372 69.07,-366 75.07,-360 81.07,-360 81.07,-360 138.32,-360 138.32,-360 144.32,-360 150.32,-366 150.32,-372 150.32,-372 150.32,-384 150.32,-384 150.32,-390 144.32,-396 138.32,-396"/>
<text xml:space="preserve" text-anchor="middle" x="109.69" y="-374.12" font-family="sans" font-size="10.00">gmap_build_db</text>
</g>
<!-- 1&#45;&gt;6 -->
<g id="edge17" class="edge">
<title>1&#45;&gt;6</title>
<path fill="none" stroke="grey" stroke-width="2" d="M401.37,-575.07C380.78,-565.17 355.09,-552.4 332.69,-540 279.28,-510.42 265.21,-503.73 215.69,-468 188.57,-448.43 159.6,-423.82 138.81,-405.44"/>
<polygon fill="grey" stroke="grey" stroke-width="2" points="141.36,-403.03 131.57,-398.99 136.7,-408.25 141.36,-403.03"/>
</g>
<!-- 7 -->
<g id="node8" class="node">
<title>7</title>
<path fill="none" stroke="#78d856" stroke-width="2" d="M468.69,-468C468.69,-468 410.69,-468 410.69,-468 404.69,-468 398.69,-462 398.69,-456 398.69,-456 398.69,-444 398.69,-444 398.69,-438 404.69,-432 410.69,-432 410.69,-432 468.69,-432 468.69,-432 474.69,-432 480.69,-438 480.69,-444 480.69,-444 480.69,-456 480.69,-456 480.69,-462 474.69,-468 468.69,-468"/>
<text xml:space="preserve" text-anchor="middle" x="439.69" y="-446.12" font-family="sans" font-size="10.00">extract_all_cds</text>
</g>
<!-- 1&#45;&gt;7 -->
<g id="edge19" class="edge">
<title>1&#45;&gt;7</title>
<path fill="none" stroke="grey" stroke-width="2" d="M439.69,-575.02C439.69,-551.54 439.69,-510.11 439.69,-481.64"/>
<polygon fill="grey" stroke="grey" stroke-width="2" points="443.19,-481.87 439.69,-471.87 436.19,-481.87 443.19,-481.87"/>
</g>
<!-- 8 -->
<g id="node9" class="node">
<title>8</title>
<path fill="none" stroke="#97d856" stroke-width="2" d="M678.82,-468C678.82,-468 594.57,-468 594.57,-468 588.57,-468 582.57,-462 582.57,-456 582.57,-456 582.57,-444 582.57,-444 582.57,-438 588.57,-432 594.57,-432 594.57,-432 678.82,-432 678.82,-432 684.82,-432 690.82,-438 690.82,-444 690.82,-444 690.82,-456 690.82,-456 690.82,-462 684.82,-468 678.82,-468"/>
<text xml:space="preserve" text-anchor="middle" x="636.69" y="-446.12" font-family="sans" font-size="10.00">extract_all_base_cds</text>
</g>
<!-- 1&#45;&gt;8 -->
<g id="edge21" class="edge">
<title>1&#45;&gt;8</title>
<path fill="none" stroke="grey" stroke-width="2" d="M464.64,-575.02C499.28,-550.05 562.11,-504.76 601.5,-476.37"/>
<polygon fill="grey" stroke="grey" stroke-width="2" points="603.43,-479.3 609.49,-470.61 599.33,-473.62 603.43,-479.3"/>
</g>
<!-- 9 -->
<g id="node10" class="node">
<title>9</title>
<path fill="none" stroke="#56d892" stroke-width="2" d="M730.07,-108C730.07,-108 677.32,-108 677.32,-108 671.32,-108 665.32,-102 665.32,-96 665.32,-96 665.32,-84 665.32,-84 665.32,-78 671.32,-72 677.32,-72 677.32,-72 730.07,-72 730.07,-72 736.07,-72 742.07,-78 742.07,-84 742.07,-84 742.07,-96 742.07,-96 742.07,-102 736.07,-108 730.07,-108"/>
<text xml:space="preserve" text-anchor="middle" x="703.69" y="-86.12" font-family="sans" font-size="10.00">flashfry_index</text>
</g>
<!-- 1&#45;&gt;9 -->
<g id="edge22" class="edge">
<title>1&#45;&gt;9</title>
<path fill="none" stroke="grey" stroke-width="2" d="M509.38,-587.46C592.02,-576.63 718.69,-544.75 718.69,-451 718.69,-451 718.69,-451 718.69,-233 718.69,-194.44 713.16,-150.31 708.81,-121.62"/>
<polygon fill="grey" stroke="grey" stroke-width="2" points="712.29,-121.19 707.27,-111.86 705.37,-122.28 712.29,-121.19"/>
</g>
<!-- 16 -->
<g id="node17" class="node">
<title>16</title>
<path fill="none" stroke="#d88556" stroke-width="2" d="M552.82,-468C552.82,-468 510.57,-468 510.57,-468 504.57,-468 498.57,-462 498.57,-456 498.57,-456 498.57,-444 498.57,-444 498.57,-438 504.57,-432 510.57,-432 510.57,-432 552.82,-432 552.82,-432 558.82,-432 564.82,-438 564.82,-444 564.82,-444 564.82,-456 564.82,-456 564.82,-462 558.82,-468 552.82,-468"/>
<text xml:space="preserve" text-anchor="middle" x="531.69" y="-446.12" font-family="sans" font-size="10.00">clean_fasta</text>
</g>
<!-- 1&#45;&gt;16 -->
<g id="edge32" class="edge">
<title>1&#45;&gt;16</title>
<path fill="none" stroke="grey" stroke-width="2" d="M451.35,-575.02C466.9,-551.01 494.63,-508.21 513.09,-479.72"/>
<polygon fill="grey" stroke="grey" stroke-width="2" points="515.99,-481.67 518.49,-471.38 510.12,-477.87 515.99,-481.67"/>
</g>
<!-- 18 -->
<g id="node19" class="node">
<title>18</title>
<path fill="none" stroke="#5673d8" stroke-width="2" d="M818.82,-180C818.82,-180 758.57,-180 758.57,-180 752.57,-180 746.57,-174 746.57,-168 746.57,-168 746.57,-156 746.57,-156 746.57,-150 752.57,-144 758.57,-144 758.57,-144 818.82,-144 818.82,-144 824.82,-144 830.82,-150 830.82,-156 830.82,-156 830.82,-168 830.82,-168 830.82,-174 824.82,-180 818.82,-180"/>
<text xml:space="preserve" text-anchor="middle" x="788.69" y="-158.12" font-family="sans" font-size="10.00">samtools_index</text>
</g>
<!-- 1&#45;&gt;18 -->
<g id="edge34" class="edge">
<title>1&#45;&gt;18</title>
<path fill="none" stroke="grey" stroke-width="2" d="M509.32,-587.85C584.71,-581 698.74,-566.55 732.69,-540 766.86,-513.29 772.69,-494.37 772.69,-451 772.69,-451 772.69,-451 772.69,-305 772.69,-266.41 778.6,-222.29 783.24,-193.61"/>
<polygon fill="grey" stroke="grey" stroke-width="2" points="786.67,-194.29 784.88,-183.85 779.77,-193.13 786.67,-194.29"/>
</g>
<!-- 2&#45;&gt;0 -->
<g id="edge8" class="edge">
<title>2&#45;&gt;0</title>
<path fill="none" stroke="grey" stroke-width="2" d="M345.49,-503.16C334.86,-493.81 323.03,-481.49 315.69,-468 296.38,-432.46 296.69,-419.45 296.69,-379 296.69,-379 296.69,-379 296.69,-161 296.69,-121.93 305.64,-77.65 312.6,-49.08"/>
<polygon fill="grey" stroke="grey" stroke-width="2" points="315.92,-50.26 314.98,-39.7 309.13,-48.54 315.92,-50.26"/>
</g>
<!-- 3 -->
<g id="node4" class="node">
<title>3</title>
<path fill="none" stroke="#56d8a9" stroke-width="2" d="M218.57,-396C218.57,-396 180.82,-396 180.82,-396 174.82,-396 168.82,-390 168.82,-384 168.82,-384 168.82,-372 168.82,-372 168.82,-366 174.82,-360 180.82,-360 180.82,-360 218.57,-360 218.57,-360 224.57,-360 230.57,-366 230.57,-372 230.57,-372 230.57,-384 230.57,-384 230.57,-390 224.57,-396 218.57,-396"/>
<text xml:space="preserve" text-anchor="middle" x="199.69" y="-374.12" font-family="sans" font-size="10.00">gff_to_bed</text>
</g>
<!-- 2&#45;&gt;3 -->
<g id="edge14" class="edge">
<title>2&#45;&gt;3</title>
<path fill="none" stroke="grey" stroke-width="2" d="M340.73,-514.97C313.37,-507.83 271.93,-493.54 244.69,-468 227.66,-452.03 216.08,-428.18 208.94,-409.19"/>
<polygon fill="grey" stroke="grey" stroke-width="2" points="212.28,-408.13 205.69,-399.84 205.67,-410.43 212.28,-408.13"/>
</g>
<!-- 4 -->
<g id="node5" class="node">
<title>4</title>
<path fill="none" stroke="#d86e56" stroke-width="2" d="M256.94,-324C256.94,-324 212.44,-324 212.44,-324 206.44,-324 200.44,-318 200.44,-312 200.44,-312 200.44,-300 200.44,-300 200.44,-294 206.44,-288 212.44,-288 212.44,-288 256.94,-288 256.94,-288 262.94,-288 268.94,-294 268.94,-300 268.94,-300 268.94,-312 268.94,-312 268.94,-318 262.94,-324 256.94,-324"/>
<text xml:space="preserve" text-anchor="middle" x="234.69" y="-302.12" font-family="sans" font-size="10.00">build_gff_db</text>
</g>
<!-- 2&#45;&gt;4 -->
<g id="edge15" class="edge">
<title>2&#45;&gt;4</title>
<path fill="none" stroke="grey" stroke-width="2" d="M340.93,-510.22C321.95,-501.51 297.63,-487.49 282.69,-468 252.93,-429.18 241.56,-372.11 237.26,-337.37"/>
<polygon fill="grey" stroke="grey" stroke-width="2" points="240.78,-337.39 236.22,-327.83 233.83,-338.15 240.78,-337.39"/>
</g>
<!-- 2&#45;&gt;7 -->
<g id="edge18" class="edge">
<title>2&#45;&gt;7</title>
<path fill="none" stroke="grey" stroke-width="2" d="M386.61,-503.34C394.45,-495.6 403.83,-486.36 412.51,-477.81"/>
<polygon fill="grey" stroke="grey" stroke-width="2" points="414.72,-480.54 419.38,-471.03 409.8,-475.56 414.72,-480.54"/>
</g>
<!-- 2&#45;&gt;8 -->
<g id="edge20" class="edge">
<title>2&#45;&gt;8</title>
<path fill="none" stroke="grey" stroke-width="2" d="M396.57,-513.89C433.72,-504.4 501.83,-486.92 569.17,-469.18"/>
<polygon fill="grey" stroke="grey" stroke-width="2" points="570.03,-472.58 578.8,-466.64 568.24,-465.81 570.03,-472.58"/>
</g>
<!-- 13 -->
<g id="node14" class="node">
<title>13</title>
<path fill="none" stroke="#568ad8" stroke-width="2" d="M368.94,-468C368.94,-468 336.44,-468 336.44,-468 330.44,-468 324.44,-462 324.44,-456 324.44,-456 324.44,-444 324.44,-444 324.44,-438 330.44,-432 336.44,-432 336.44,-432 368.94,-432 368.94,-432 374.94,-432 380.94,-438 380.94,-444 380.94,-444 380.94,-456 380.94,-456 380.94,-462 374.94,-468 368.94,-468"/>
<text xml:space="preserve" text-anchor="middle" x="352.69" y="-446.12" font-family="sans" font-size="10.00">parse_gff</text>
</g>
<!-- 2&#45;&gt;13 -->
<g id="edge27" class="edge">
<title>2&#45;&gt;13</title>
<path fill="none" stroke="grey" stroke-width="2" d="M364.66,-503.34C363.13,-496.67 361.35,-488.89 359.64,-481.39"/>
<polygon fill="grey" stroke="grey" stroke-width="2" points="363.1,-480.82 357.46,-471.85 356.28,-482.38 363.1,-480.82"/>
</g>
<!-- 2&#45;&gt;16 -->
<g id="edge31" class="edge">
<title>2&#45;&gt;16</title>
<path fill="none" stroke="grey" stroke-width="2" d="M396.35,-509.13C420.82,-498.61 457.03,-483.06 485.84,-470.69"/>
<polygon fill="grey" stroke="grey" stroke-width="2" points="487.09,-473.96 494.9,-466.8 484.33,-467.53 487.09,-473.96"/>
</g>
<!-- 3&#45;&gt;0 -->
<g id="edge1" class="edge">
<title>3&#45;&gt;0</title>
<path fill="none" stroke="grey" stroke-width="2" d="M194.1,-359.27C186.19,-332.6 172.69,-280.42 172.69,-235 172.69,-235 172.69,-235 172.69,-161 172.69,-100.66 237.55,-57.98 281.39,-36.02"/>
<polygon fill="grey" stroke="grey" stroke-width="2" points="282.63,-39.31 290.13,-31.82 279.6,-33 282.63,-39.31"/>
</g>
<!-- 4&#45;&gt;0 -->
<g id="edge4" class="edge">
<title>4&#45;&gt;0</title>
<path fill="none" stroke="grey" stroke-width="2" d="M235.83,-287.29C238.91,-247.32 249.57,-147.67 282.69,-72 286.46,-63.4 291.77,-54.81 297.24,-47.13"/>
<polygon fill="grey" stroke="grey" stroke-width="2" points="299.85,-49.47 303.09,-39.38 294.27,-45.25 299.85,-49.47"/>
</g>
<!-- 5&#45;&gt;0 -->
<g id="edge5" class="edge">
<title>5&#45;&gt;0</title>
<path fill="none" stroke="grey" stroke-width="2" d="M73,-503.1C60.96,-476.63 40.69,-425.19 40.69,-379 40.69,-379 40.69,-379 40.69,-161 40.69,-54.86 202.71,-28.03 280.26,-21.27"/>
<polygon fill="grey" stroke="grey" stroke-width="2" points="280.11,-24.79 289.81,-20.52 279.56,-17.81 280.11,-24.79"/>
</g>
<!-- 6&#45;&gt;0 -->
<g id="edge3" class="edge">
<title>6&#45;&gt;0</title>
<path fill="none" stroke="grey" stroke-width="2" d="M112.39,-359.12C116.2,-332.24 122.69,-279.81 122.69,-235 122.69,-235 122.69,-235 122.69,-161 122.69,-84.12 222.5,-44.83 280.39,-28.5"/>
<polygon fill="grey" stroke="grey" stroke-width="2" points="281.07,-31.94 289.82,-25.97 279.26,-25.18 281.07,-31.94"/>
</g>
<!-- 7&#45;&gt;0 -->
<g id="edge2" class="edge">
<title>7&#45;&gt;0</title>
<path fill="none" stroke="grey" stroke-width="2" d="M434.1,-431.27C426.19,-404.6 412.69,-352.42 412.69,-307 412.69,-307 412.69,-307 412.69,-161 412.69,-114.96 378.2,-72.06 351.46,-45.72"/>
<polygon fill="grey" stroke="grey" stroke-width="2" points="353.9,-43.21 344.23,-38.87 349.08,-48.29 353.9,-43.21"/>
</g>
<!-- 8&#45;&gt;0 -->
<g id="edge10" class="edge">
<title>8&#45;&gt;0</title>
<path fill="none" stroke="grey" stroke-width="2" d="M633.79,-431.12C629.69,-404.26 622.69,-351.84 622.69,-307 622.69,-307 622.69,-307 622.69,-161 622.69,-46.85 443.8,-24.29 361.38,-19.96"/>
<polygon fill="grey" stroke="grey" stroke-width="2" points="361.73,-16.47 351.59,-19.53 361.42,-23.47 361.73,-16.47"/>
</g>
<!-- 9&#45;&gt;0 -->
<g id="edge7" class="edge">
<title>9&#45;&gt;0</title>
<path fill="none" stroke="grey" stroke-width="2" d="M664.5,-78.48C655.4,-76.2 645.74,-73.9 636.69,-72 538.26,-51.29 421.22,-33.4 360.98,-24.67"/>
<polygon fill="grey" stroke="grey" stroke-width="2" points="361.7,-21.24 351.31,-23.28 360.71,-28.17 361.7,-21.24"/>
</g>
<!-- 10 -->
<g id="node11" class="node">
<title>10</title>
<path fill="none" stroke="#56d863" stroke-width="2" d="M524.44,-108C524.44,-108 452.94,-108 452.94,-108 446.94,-108 440.94,-102 440.94,-96 440.94,-96 440.94,-84 440.94,-84 440.94,-78 446.94,-72 452.94,-72 452.94,-72 524.44,-72 524.44,-72 530.44,-72 536.44,-78 536.44,-84 536.44,-84 536.44,-96 536.44,-96 536.44,-102 530.44,-108 524.44,-108"/>
<text xml:space="preserve" text-anchor="middle" x="488.69" y="-86.12" font-family="sans" font-size="10.00">extract_wgd_pairs</text>
</g>
<!-- 10&#45;&gt;0 -->
<g id="edge9" class="edge">
<title>10&#45;&gt;0</title>
<path fill="none" stroke="grey" stroke-width="2" d="M445.87,-71.15C419.63,-60.22 386.28,-46.33 360.6,-35.63"/>
<polygon fill="grey" stroke="grey" stroke-width="2" points="362.05,-32.44 351.47,-31.82 359.36,-38.9 362.05,-32.44"/>
</g>
<!-- 11 -->
<g id="node12" class="node">
<title>11</title>
<path fill="none" stroke="#56b9d8" stroke-width="2" d="M501.57,-180C501.57,-180 469.82,-180 469.82,-180 463.82,-180 457.82,-174 457.82,-168 457.82,-168 457.82,-156 457.82,-156 457.82,-150 463.82,-144 469.82,-144 469.82,-144 501.57,-144 501.57,-144 507.57,-144 513.57,-150 513.57,-156 513.57,-156 513.57,-168 513.57,-168 513.57,-174 507.57,-180 501.57,-180"/>
<text xml:space="preserve" text-anchor="middle" x="485.69" y="-158.12" font-family="sans" font-size="10.00">mcscanx</text>
</g>
<!-- 11&#45;&gt;10 -->
<g id="edge23" class="edge">
<title>11&#45;&gt;10</title>
<path fill="none" stroke="grey" stroke-width="2" d="M486.45,-143.34C486.73,-136.75 487.06,-129.08 487.38,-121.67"/>
<polygon fill="grey" stroke="grey" stroke-width="2" points="490.87,-122.07 487.8,-111.93 483.87,-121.77 490.87,-122.07"/>
</g>
<!-- 12 -->
<g id="node13" class="node">
<title>12</title>
<path fill="none" stroke="#56a2d8" stroke-width="2" d="M372.44,-252C372.44,-252 336.94,-252 336.94,-252 330.94,-252 324.94,-246 324.94,-240 324.94,-240 324.94,-228 324.94,-228 324.94,-222 330.94,-216 336.94,-216 336.94,-216 372.44,-216 372.44,-216 378.44,-216 384.44,-222 384.44,-228 384.44,-228 384.44,-240 384.44,-240 384.44,-246 378.44,-252 372.44,-252"/>
<text xml:space="preserve" text-anchor="middle" x="354.69" y="-230.12" font-family="sans" font-size="10.00">merge_gff</text>
</g>
<!-- 12&#45;&gt;0 -->
<g id="edge12" class="edge">
<title>12&#45;&gt;0</title>
<path fill="none" stroke="grey" stroke-width="2" d="M351.85,-215.12C346.05,-178.62 332.79,-95.13 325.58,-49.74"/>
<polygon fill="grey" stroke="grey" stroke-width="2" points="329.05,-49.29 324.03,-39.97 322.14,-50.39 329.05,-49.29"/>
</g>
<!-- 12&#45;&gt;11 -->
<g id="edge25" class="edge">
<title>12&#45;&gt;11</title>
<path fill="none" stroke="grey" stroke-width="2" d="M385.41,-216.59C403.4,-206.97 426.33,-194.72 445.73,-184.36"/>
<polygon fill="grey" stroke="grey" stroke-width="2" points="447.13,-187.58 454.3,-179.78 443.83,-181.4 447.13,-187.58"/>
</g>
<!-- 13&#45;&gt;12 -->
<g id="edge26" class="edge">
<title>13&#45;&gt;12</title>
<path fill="none" stroke="grey" stroke-width="2" d="M352.86,-431.12C353.2,-394.62 353.98,-311.13 354.41,-265.74"/>
<polygon fill="grey" stroke="grey" stroke-width="2" points="357.9,-266.04 354.5,-256 350.9,-265.97 357.9,-266.04"/>
</g>
<!-- 14 -->
<g id="node15" class="node">
<title>14</title>
<path fill="none" stroke="#d8a456" stroke-width="2" d="M513.19,-252C513.19,-252 458.19,-252 458.19,-252 452.19,-252 446.19,-246 446.19,-240 446.19,-240 446.19,-228 446.19,-228 446.19,-222 452.19,-216 458.19,-216 458.19,-216 513.19,-216 513.19,-216 519.19,-216 525.19,-222 525.19,-228 525.19,-228 525.19,-240 525.19,-240 525.19,-246 519.19,-252 513.19,-252"/>
<text xml:space="preserve" text-anchor="middle" x="485.69" y="-230.12" font-family="sans" font-size="10.00">combine_blast</text>
</g>
<!-- 14&#45;&gt;11 -->
<g id="edge24" class="edge">
<title>14&#45;&gt;11</title>
<path fill="none" stroke="grey" stroke-width="2" d="M485.69,-215.34C485.69,-208.75 485.69,-201.08 485.69,-193.67"/>
<polygon fill="grey" stroke="grey" stroke-width="2" points="489.19,-193.93 485.69,-183.93 482.19,-193.93 489.19,-193.93"/>
</g>
<!-- 15 -->
<g id="node16" class="node">
<title>15</title>
<path fill="none" stroke="#d8bc56" stroke-width="2" d="M515.82,-324C515.82,-324 455.57,-324 455.57,-324 449.57,-324 443.57,-318 443.57,-312 443.57,-312 443.57,-300 443.57,-300 443.57,-294 449.57,-288 455.57,-288 455.57,-288 515.82,-288 515.82,-288 521.82,-288 527.82,-294 527.82,-300 527.82,-300 527.82,-312 527.82,-312 527.82,-318 521.82,-324 515.82,-324"/>
<text xml:space="preserve" text-anchor="middle" x="485.69" y="-302.12" font-family="sans" font-size="10.00">diamond_blastp</text>
</g>
<!-- 15&#45;&gt;14 -->
<g id="edge28" class="edge">
<title>15&#45;&gt;14</title>
<path fill="none" stroke="grey" stroke-width="2" d="M485.69,-287.34C485.69,-280.75 485.69,-273.08 485.69,-265.67"/>
<polygon fill="grey" stroke="grey" stroke-width="2" points="489.19,-265.93 485.69,-255.93 482.19,-265.93 489.19,-265.93"/>
</g>
<!-- 16&#45;&gt;15 -->
<g id="edge30" class="edge">
<title>16&#45;&gt;15</title>
<path fill="none" stroke="grey" stroke-width="2" d="M507.59,-431.11C497.22,-421.91 486.23,-409.74 480.69,-396 473.23,-377.47 474.56,-355 477.72,-337.27"/>
<polygon fill="grey" stroke="grey" stroke-width="2" points="481.09,-338.25 479.75,-327.74 474.24,-336.8 481.09,-338.25"/>
</g>
<!-- 17 -->
<g id="node18" class="node">
<title>17</title>
<path fill="none" stroke="#d8d356" stroke-width="2" d="M575.57,-396C575.57,-396 501.82,-396 501.82,-396 495.82,-396 489.82,-390 489.82,-384 489.82,-384 489.82,-372 489.82,-372 489.82,-366 495.82,-360 501.82,-360 501.82,-360 575.57,-360 575.57,-360 581.57,-360 587.57,-366 587.57,-372 587.57,-372 587.57,-384 587.57,-384 587.57,-390 581.57,-396 575.57,-396"/>
<text xml:space="preserve" text-anchor="middle" x="538.69" y="-374.12" font-family="sans" font-size="10.00">diamond_make_db</text>
</g>
<!-- 16&#45;&gt;17 -->
<g id="edge33" class="edge">
<title>16&#45;&gt;17</title>
<path fill="none" stroke="grey" stroke-width="2" d="M533.46,-431.34C534.12,-424.75 534.89,-417.08 535.63,-409.67"/>
<polygon fill="grey" stroke="grey" stroke-width="2" points="539.09,-410.21 536.6,-399.91 532.13,-409.52 539.09,-410.21"/>
</g>
<!-- 17&#45;&gt;15 -->
<g id="edge29" class="edge">
<title>17&#45;&gt;15</title>
<path fill="none" stroke="grey" stroke-width="2" d="M525.32,-359.34C519.78,-352.01 513.21,-343.34 507.03,-335.18"/>
<polygon fill="grey" stroke="grey" stroke-width="2" points="509.9,-333.18 501.08,-327.32 504.32,-337.4 509.9,-333.18"/>
</g>
<!-- 18&#45;&gt;0 -->
<g id="edge6" class="edge">
<title>18&#45;&gt;0</title>
<path fill="none" stroke="grey" stroke-width="2" d="M786.37,-143.06C782.68,-122.39 773.38,-89.07 750.69,-72 689.89,-26.26 456.66,-19.71 361.49,-18.98"/>
<polygon fill="grey" stroke="grey" stroke-width="2" points="361.53,-15.48 351.52,-18.93 361.5,-22.48 361.53,-15.48"/>
</g>
</g>
</svg>
