<?xml version="1.0" encoding="UTF-8" standalone="no"?>
<!DOCTYPE svg PUBLIC "-//W3C//DTD SVG 1.1//EN"
 "http://www.w3.org/Graphics/SVG/1.1/DTD/svg11.dtd">
<!-- Generated by graphviz version 13.1.2 (0)
 -->
<!-- Title: snakemake_dag Pages: 1 -->
<svg width="1809pt" height="980pt"
 viewBox="0.00 0.00 1809.00 980.00" xmlns="http://www.w3.org/2000/svg" xmlns:xlink="http://www.w3.org/1999/xlink">
<g id="graph0" class="graph" transform="scale(1 1) rotate(0) translate(4 976)">
<title>snakemake_dag</title>
<polygon fill="white" stroke="none" points="-4,4 -4,-976 1805.12,-976 1805.12,4 -4,4"/>
<!-- 0 -->
<g id="node1" class="node">
<title>0</title>
<path fill="none" stroke="#d85656" stroke-width="2" d="M719.12,-36C719.12,-36 689.12,-36 689.12,-36 683.12,-36 677.12,-30 677.12,-24 677.12,-24 677.12,-12 677.12,-12 677.12,-6 683.12,0 689.12,0 689.12,0 719.12,0 719.12,0 725.12,0 731.12,-6 731.12,-12 731.12,-12 731.12,-24 731.12,-24 731.12,-30 725.12,-36 719.12,-36"/>
<text xml:space="preserve" text-anchor="middle" x="704.12" y="-14.12" font-family="sans" font-size="10.00">all</text>
</g>
<!-- 1 -->
<g id="node2" class="node">
<title>1</title>
<path fill="none" stroke="#5682d8" stroke-width="2" d="M60.25,-108C60.25,-108 12,-108 12,-108 6,-108 0,-102 0,-96 0,-96 0,-84 0,-84 0,-78 6,-72 12,-72 12,-72 60.25,-72 60.25,-72 66.25,-72 72.25,-78 72.25,-84 72.25,-84 72.25,-96 72.25,-96 72.25,-102 66.25,-108 60.25,-108"/>
<text xml:space="preserve" text-anchor="middle" x="36.12" y="-86.12" font-family="sans" font-size="10.00">setup_output</text>
</g>
<!-- 1&#45;&gt;0 -->
<g id="edge15" class="edge">
<title>1&#45;&gt;0</title>
<path fill="none" stroke="grey" stroke-width="2" d="M72.98,-75.36C77.37,-74.06 81.82,-72.9 86.12,-72 300.28,-27.11 563.81,-20.09 663.42,-19.1"/>
<polygon fill="grey" stroke="grey" stroke-width="2" points="663.37,-22.6 673.34,-19.03 663.31,-15.61 663.37,-22.6"/>
</g>
<!-- 2 -->
<g id="node3" class="node">
<title>2</title>
<path fill="none" stroke="#9fd856" stroke-width="2" d="M551.88,-900C551.88,-900 444.38,-900 444.38,-900 438.38,-900 432.38,-894 432.38,-888 432.38,-888 432.38,-876 432.38,-876 432.38,-870 438.38,-864 444.38,-864 444.38,-864 551.88,-864 551.88,-864 557.88,-864 563.88,-870 563.88,-876 563.88,-876 563.88,-888 563.88,-888 563.88,-894 557.88,-900 551.88,-900"/>
<text xml:space="preserve" text-anchor="middle" x="498.12" y="-878.12" font-family="sans" font-size="10.00">extract_filtered_target_hits</text>
</g>
<!-- 2&#45;&gt;0 -->
<g id="edge22" class="edge">
<title>2&#45;&gt;0</title>
<path fill="none" stroke="grey" stroke-width="2" d="M431.68,-868.89C327.66,-848.01 138.12,-801.4 138.12,-739 138.12,-739 138.12,-739 138.12,-161 138.12,-117.07 145.14,-97.2 181.12,-72 220.41,-44.49 547.72,-26.43 663.63,-20.84"/>
<polygon fill="grey" stroke="grey" stroke-width="2" points="663.53,-24.35 673.35,-20.38 663.2,-17.36 663.53,-24.35"/>
</g>
<!-- 4 -->
<g id="node5" class="node">
<title>4</title>
<path fill="none" stroke="#d86656" stroke-width="2" d="M403.38,-828C403.38,-828 358.88,-828 358.88,-828 352.88,-828 346.88,-822 346.88,-816 346.88,-816 346.88,-804 346.88,-804 346.88,-798 352.88,-792 358.88,-792 358.88,-792 403.38,-792 403.38,-792 409.38,-792 415.38,-798 415.38,-804 415.38,-804 415.38,-816 415.38,-816 415.38,-822 409.38,-828 403.38,-828"/>
<text xml:space="preserve" text-anchor="middle" x="381.12" y="-806.12" font-family="sans" font-size="10.00">blastp_base</text>
</g>
<!-- 2&#45;&gt;4 -->
<g id="edge28" class="edge">
<title>2&#45;&gt;4</title>
<path fill="none" stroke="grey" stroke-width="2" d="M468.3,-863.15C454.13,-854.68 436.99,-844.42 421.67,-835.25"/>
<polygon fill="grey" stroke="grey" stroke-width="2" points="423.87,-832.5 413.49,-830.37 420.28,-838.5 423.87,-832.5"/>
</g>
<!-- 5 -->
<g id="node6" class="node">
<title>5</title>
<path fill="none" stroke="#d6d856" stroke-width="2" d="M400,-612C400,-612 314.25,-612 314.25,-612 308.25,-612 302.25,-606 302.25,-600 302.25,-600 302.25,-588 302.25,-588 302.25,-582 308.25,-576 314.25,-576 314.25,-576 400,-576 400,-576 406,-576 412,-582 412,-588 412,-588 412,-600 412,-600 412,-606 406,-612 400,-612"/>
<text xml:space="preserve" text-anchor="middle" x="357.12" y="-590.12" font-family="sans" font-size="10.00">convert_query_to_tsv</text>
</g>
<!-- 2&#45;&gt;5 -->
<g id="edge29" class="edge">
<title>2&#45;&gt;5</title>
<path fill="none" stroke="grey" stroke-width="2" d="M498.14,-863.08C497.31,-821.35 490.15,-716.1 441.12,-648 432.95,-636.64 421.52,-627.16 409.71,-619.5"/>
<polygon fill="grey" stroke="grey" stroke-width="2" points="411.82,-616.69 401.44,-614.54 408.22,-622.69 411.82,-616.69"/>
</g>
<!-- 9 -->
<g id="node10" class="node">
<title>9</title>
<path fill="none" stroke="#d8bc56" stroke-width="2" d="M495.12,-396C495.12,-396 395.12,-396 395.12,-396 389.12,-396 383.12,-390 383.12,-384 383.12,-384 383.12,-372 383.12,-372 383.12,-366 389.12,-360 395.12,-360 395.12,-360 495.12,-360 495.12,-360 501.12,-360 507.12,-366 507.12,-372 507.12,-372 507.12,-384 507.12,-384 507.12,-390 501.12,-396 495.12,-396"/>
<text xml:space="preserve" text-anchor="middle" x="445.12" y="-374.12" font-family="sans" font-size="10.00">combine_hits_and_query</text>
</g>
<!-- 2&#45;&gt;9 -->
<g id="edge35" class="edge">
<title>2&#45;&gt;9</title>
<path fill="none" stroke="grey" stroke-width="2" d="M506.18,-863.03C517.34,-836.48 536.12,-784.94 536.12,-739 536.12,-739 536.12,-739 536.12,-521 536.12,-479.91 533.78,-466.28 511.12,-432 504.34,-421.74 494.94,-412.52 485.35,-404.76"/>
<polygon fill="grey" stroke="grey" stroke-width="2" points="487.49,-401.99 477.41,-398.75 483.27,-407.58 487.49,-401.99"/>
</g>
<!-- 12 -->
<g id="node13" class="node">
<title>12</title>
<path fill="none" stroke="#5673d8" stroke-width="2" d="M473.38,-252C473.38,-252 410.88,-252 410.88,-252 404.88,-252 398.88,-246 398.88,-240 398.88,-240 398.88,-228 398.88,-228 398.88,-222 404.88,-216 410.88,-216 410.88,-216 473.38,-216 473.38,-216 479.38,-216 485.38,-222 485.38,-228 485.38,-228 485.38,-240 485.38,-240 485.38,-246 479.38,-252 473.38,-252"/>
<text xml:space="preserve" text-anchor="middle" x="442.12" y="-230.12" font-family="sans" font-size="10.00">split_by_domain</text>
</g>
<!-- 2&#45;&gt;12 -->
<g id="edge40" class="edge">
<title>2&#45;&gt;12</title>
<path fill="none" stroke="grey" stroke-width="2" d="M514.99,-863.35C537.38,-837.98 574.12,-788.77 574.12,-739 574.12,-739 574.12,-739 574.12,-377 574.12,-324.92 525.91,-283.92 487.75,-259.63"/>
<polygon fill="grey" stroke="grey" stroke-width="2" points="489.75,-256.75 479.39,-254.52 486.09,-262.72 489.75,-256.75"/>
</g>
<!-- 14 -->
<g id="node15" class="node">
<title>14</title>
<path fill="none" stroke="#5692d8" stroke-width="2" d="M655,-180C655,-180 569.25,-180 569.25,-180 563.25,-180 557.25,-174 557.25,-168 557.25,-168 557.25,-156 557.25,-156 557.25,-150 563.25,-144 569.25,-144 569.25,-144 655,-144 655,-144 661,-144 667,-150 667,-156 667,-156 667,-168 667,-168 667,-174 661,-180 655,-180"/>
<text xml:space="preserve" text-anchor="middle" x="612.12" y="-158.12" font-family="sans" font-size="10.00">run_hmmer_on_query</text>
</g>
<!-- 2&#45;&gt;14 -->
<g id="edge43" class="edge">
<title>2&#45;&gt;14</title>
<path fill="none" stroke="grey" stroke-width="2" d="M526.3,-863.15C560.06,-839.31 612.12,-793.69 612.12,-739 612.12,-739 612.12,-739 612.12,-305 612.12,-266.65 612.12,-222.48 612.12,-193.72"/>
<polygon fill="grey" stroke="grey" stroke-width="2" points="615.63,-193.96 612.13,-183.96 608.63,-193.96 615.63,-193.96"/>
</g>
<!-- 3 -->
<g id="node4" class="node">
<title>3</title>
<path fill="none" stroke="#56d882" stroke-width="2" d="M342,-972C342,-972 256.25,-972 256.25,-972 250.25,-972 244.25,-966 244.25,-960 244.25,-960 244.25,-948 244.25,-948 244.25,-942 250.25,-936 256.25,-936 256.25,-936 342,-936 342,-936 348,-936 354,-942 354,-948 354,-948 354,-960 354,-960 354,-966 348,-972 342,-972"/>
<text xml:space="preserve" text-anchor="middle" x="299.12" y="-950.12" font-family="sans" font-size="10.00">generate_query_fasta</text>
</g>
<!-- 3&#45;&gt;0 -->
<g id="edge6" class="edge">
<title>3&#45;&gt;0</title>
<path fill="none" stroke="grey" stroke-width="2" d="M243.43,-939.06C184.56,-920.6 100.12,-881.77 100.12,-811 100.12,-811 100.12,-811 100.12,-161 100.12,-117.07 107.05,-97.07 143.12,-72 185.66,-42.43 541.85,-25.51 663.55,-20.55"/>
<polygon fill="grey" stroke="grey" stroke-width="2" points="663.34,-24.06 673.19,-20.16 663.06,-17.07 663.34,-24.06"/>
</g>
<!-- 3&#45;&gt;2 -->
<g id="edge27" class="edge">
<title>3&#45;&gt;2</title>
<path fill="none" stroke="grey" stroke-width="2" d="M350.11,-935.06C375.98,-925.97 407.63,-914.83 435.02,-905.2"/>
<polygon fill="grey" stroke="grey" stroke-width="2" points="436.14,-908.51 444.41,-901.89 433.82,-901.91 436.14,-908.51"/>
</g>
<!-- 4&#45;&gt;0 -->
<g id="edge4" class="edge">
<title>4&#45;&gt;0</title>
<path fill="none" stroke="grey" stroke-width="2" d="M346.11,-806.84C308.3,-802.71 248.48,-790.74 211.12,-756 180,-727.05 176.12,-709.5 176.12,-667 176.12,-667 176.12,-667 176.12,-161 176.12,-116.87 183.97,-97.29 220.12,-72 291.31,-22.21 560.14,-18.21 663.4,-18.56"/>
<polygon fill="grey" stroke="grey" stroke-width="2" points="663.22,-22.06 673.24,-18.62 663.26,-15.06 663.22,-22.06"/>
</g>
<!-- 7 -->
<g id="node8" class="node">
<title>7</title>
<path fill="none" stroke="#56d873" stroke-width="2" d="M420.38,-756C420.38,-756 231.88,-756 231.88,-756 225.88,-756 219.88,-750 219.88,-744 219.88,-744 219.88,-732 219.88,-732 219.88,-726 225.88,-720 231.88,-720 231.88,-720 420.38,-720 420.38,-720 426.38,-720 432.38,-726 432.38,-732 432.38,-732 432.38,-744 432.38,-744 432.38,-750 426.38,-756 420.38,-756"/>
<text xml:space="preserve" text-anchor="middle" x="326.12" y="-734.12" font-family="sans" font-size="10.00">extract_unique_pairs_no_dup_within_species</text>
</g>
<!-- 4&#45;&gt;7 -->
<g id="edge32" class="edge">
<title>4&#45;&gt;7</title>
<path fill="none" stroke="grey" stroke-width="2" d="M367.25,-791.34C361.43,-783.93 354.52,-775.14 348.05,-766.9"/>
<polygon fill="grey" stroke="grey" stroke-width="2" points="350.99,-764.98 342.06,-759.28 345.49,-769.31 350.99,-764.98"/>
</g>
<!-- 11 -->
<g id="node12" class="node">
<title>11</title>
<path fill="none" stroke="#8fd856" stroke-width="2" d="M473,-540C473,-540 417.25,-540 417.25,-540 411.25,-540 405.25,-534 405.25,-528 405.25,-528 405.25,-516 405.25,-516 405.25,-510 411.25,-504 417.25,-504 417.25,-504 473,-504 473,-504 479,-504 485,-510 485,-516 485,-516 485,-528 485,-528 485,-534 479,-540 473,-540"/>
<text xml:space="preserve" text-anchor="middle" x="445.12" y="-518.12" font-family="sans" font-size="10.00">extract_hit_ids</text>
</g>
<!-- 4&#45;&gt;11 -->
<g id="edge38" class="edge">
<title>4&#45;&gt;11</title>
<path fill="none" stroke="grey" stroke-width="2" d="M410.22,-791.21C422.08,-782.26 434.55,-770.26 441.12,-756 471.98,-689.1 460.97,-599.49 452.03,-553.32"/>
<polygon fill="grey" stroke="grey" stroke-width="2" points="455.49,-552.77 450.05,-543.68 448.64,-554.18 455.49,-552.77"/>
</g>
<!-- 5&#45;&gt;0 -->
<g id="edge7" class="edge">
<title>5&#45;&gt;0</title>
<path fill="none" stroke="grey" stroke-width="2" d="M342.59,-575.43C322.88,-549.78 290.12,-499.79 290.12,-451 290.12,-451 290.12,-451 290.12,-161 290.12,-112.28 312.56,-97.42 354.12,-72 405.47,-40.6 583.1,-26.23 663.74,-21.2"/>
<polygon fill="grey" stroke="grey" stroke-width="2" points="663.47,-24.73 673.24,-20.63 663.05,-17.74 663.47,-24.73"/>
</g>
<!-- 5&#45;&gt;11 -->
<g id="edge37" class="edge">
<title>5&#45;&gt;11</title>
<path fill="none" stroke="grey" stroke-width="2" d="M379.33,-575.34C389.36,-567.36 401.42,-557.77 412.45,-548.99"/>
<polygon fill="grey" stroke="grey" stroke-width="2" points="414.6,-551.75 420.25,-542.79 410.25,-546.27 414.6,-551.75"/>
</g>
<!-- 6 -->
<g id="node7" class="node">
<title>6</title>
<path fill="none" stroke="#d87556" stroke-width="2" d="M419.75,-684C419.75,-684 254.5,-684 254.5,-684 248.5,-684 242.5,-678 242.5,-672 242.5,-672 242.5,-660 242.5,-660 242.5,-654 248.5,-648 254.5,-648 254.5,-648 419.75,-648 419.75,-648 425.75,-648 431.75,-654 431.75,-660 431.75,-660 431.75,-672 431.75,-672 431.75,-678 425.75,-684 419.75,-684"/>
<text xml:space="preserve" text-anchor="middle" x="337.12" y="-662.12" font-family="sans" font-size="10.00">calculate_conservation_and_kaks_input</text>
</g>
<!-- 6&#45;&gt;0 -->
<g id="edge10" class="edge">
<title>6&#45;&gt;0</title>
<path fill="none" stroke="grey" stroke-width="2" d="M317.84,-647.31C292.76,-622.27 252.12,-573.86 252.12,-523 252.12,-523 252.12,-523 252.12,-161 252.12,-115.63 264.55,-97.43 302.12,-72 360.49,-32.5 573.46,-22.37 663.5,-19.83"/>
<polygon fill="grey" stroke="grey" stroke-width="2" points="663.43,-23.33 673.33,-19.57 663.24,-16.33 663.43,-23.33"/>
</g>
<!-- 6&#45;&gt;5 -->
<g id="edge30" class="edge">
<title>6&#45;&gt;5</title>
<path fill="none" stroke="grey" stroke-width="2" d="M342.17,-647.34C344.08,-640.67 346.3,-632.89 348.44,-625.39"/>
<polygon fill="grey" stroke="grey" stroke-width="2" points="351.8,-626.39 351.18,-615.81 345.07,-624.47 351.8,-626.39"/>
</g>
<!-- 7&#45;&gt;0 -->
<g id="edge12" class="edge">
<title>7&#45;&gt;0</title>
<path fill="none" stroke="grey" stroke-width="2" d="M277.8,-719.15C261.35,-710.82 244.32,-699.3 233.12,-684 209.24,-651.36 214.12,-635.45 214.12,-595 214.12,-595 214.12,-595 214.12,-161 214.12,-116.47 223.53,-97.37 260.12,-72 324.87,-27.1 566.09,-20.08 663.22,-19.1"/>
<polygon fill="grey" stroke="grey" stroke-width="2" points="663.2,-22.6 673.17,-19.02 663.14,-15.6 663.2,-22.6"/>
</g>
<!-- 7&#45;&gt;6 -->
<g id="edge31" class="edge">
<title>7&#45;&gt;6</title>
<path fill="none" stroke="grey" stroke-width="2" d="M328.9,-719.34C329.94,-712.75 331.14,-705.08 332.31,-697.67"/>
<polygon fill="grey" stroke="grey" stroke-width="2" points="335.75,-698.31 333.84,-687.89 328.83,-697.23 335.75,-698.31"/>
</g>
<!-- 8 -->
<g id="node9" class="node">
<title>8</title>
<path fill="none" stroke="#56a2d8" stroke-width="2" d="M405.5,-324C405.5,-324 364.75,-324 364.75,-324 358.75,-324 352.75,-318 352.75,-312 352.75,-312 352.75,-300 352.75,-300 352.75,-294 358.75,-288 364.75,-288 364.75,-288 405.5,-288 405.5,-288 411.5,-288 417.5,-294 417.5,-300 417.5,-300 417.5,-312 417.5,-312 417.5,-318 411.5,-324 405.5,-324"/>
<text xml:space="preserve" text-anchor="middle" x="385.12" y="-302.12" font-family="sans" font-size="10.00">run_hmmer</text>
</g>
<!-- 8&#45;&gt;0 -->
<g id="edge19" class="edge">
<title>8&#45;&gt;0</title>
<path fill="none" stroke="grey" stroke-width="2" d="M377.47,-287.3C360.16,-244.19 323.65,-132.85 379.12,-72 416.63,-30.87 585.13,-21.64 663.64,-19.59"/>
<polygon fill="grey" stroke="grey" stroke-width="2" points="663.37,-23.09 673.29,-19.37 663.21,-16.09 663.37,-23.09"/>
</g>
<!-- 8&#45;&gt;12 -->
<g id="edge39" class="edge">
<title>8&#45;&gt;12</title>
<path fill="none" stroke="grey" stroke-width="2" d="M399.51,-287.34C405.54,-279.93 412.69,-271.14 419.4,-262.9"/>
<polygon fill="grey" stroke="grey" stroke-width="2" points="422.04,-265.21 425.64,-255.25 416.61,-260.79 422.04,-265.21"/>
</g>
<!-- 9&#45;&gt;8 -->
<g id="edge33" class="edge">
<title>9&#45;&gt;8</title>
<path fill="none" stroke="grey" stroke-width="2" d="M429.98,-359.34C423.57,-351.85 415.94,-342.95 408.81,-334.63"/>
<polygon fill="grey" stroke="grey" stroke-width="2" points="411.6,-332.51 402.44,-327.2 406.29,-337.07 411.6,-332.51"/>
</g>
<!-- 9&#45;&gt;12 -->
<g id="edge41" class="edge">
<title>9&#45;&gt;12</title>
<path fill="none" stroke="grey" stroke-width="2" d="M444.75,-359.02C444.25,-335.54 443.37,-294.11 442.77,-265.64"/>
<polygon fill="grey" stroke="grey" stroke-width="2" points="446.28,-265.79 442.57,-255.86 439.28,-265.94 446.28,-265.79"/>
</g>
<!-- 10 -->
<g id="node11" class="node">
<title>10</title>
<path fill="none" stroke="#80d856" stroke-width="2" d="M490.25,-468C490.25,-468 400,-468 400,-468 394,-468 388,-462 388,-456 388,-456 388,-444 388,-444 388,-438 394,-432 400,-432 400,-432 490.25,-432 490.25,-432 496.25,-432 502.25,-438 502.25,-444 502.25,-444 502.25,-456 502.25,-456 502.25,-462 496.25,-468 490.25,-468"/>
<text xml:space="preserve" text-anchor="middle" x="445.12" y="-446.12" font-family="sans" font-size="10.00">extract_hit_sequences</text>
</g>
<!-- 10&#45;&gt;9 -->
<g id="edge34" class="edge">
<title>10&#45;&gt;9</title>
<path fill="none" stroke="grey" stroke-width="2" d="M445.12,-431.34C445.12,-424.75 445.12,-417.08 445.12,-409.67"/>
<polygon fill="grey" stroke="grey" stroke-width="2" points="448.63,-409.93 445.13,-399.93 441.63,-409.93 448.63,-409.93"/>
</g>
<!-- 11&#45;&gt;10 -->
<g id="edge36" class="edge">
<title>11&#45;&gt;10</title>
<path fill="none" stroke="grey" stroke-width="2" d="M445.12,-503.34C445.12,-496.75 445.12,-489.08 445.12,-481.67"/>
<polygon fill="grey" stroke="grey" stroke-width="2" points="448.63,-481.93 445.13,-471.93 441.63,-481.93 448.63,-481.93"/>
</g>
<!-- 12&#45;&gt;0 -->
<g id="edge13" class="edge">
<title>12&#45;&gt;0</title>
<path fill="none" stroke="grey" stroke-width="2" d="M416.35,-215.15C405.46,-206.04 393.97,-193.93 388.12,-180 369.13,-134.75 374.24,-104.37 411.12,-72 448.08,-39.57 591.92,-26.07 663.37,-21.27"/>
<polygon fill="grey" stroke="grey" stroke-width="2" points="663.46,-24.78 673.22,-20.65 663.01,-17.79 663.46,-24.78"/>
</g>
<!-- 16 -->
<g id="node17" class="node">
<title>16</title>
<path fill="none" stroke="#56d8c9" stroke-width="2" d="M475.25,-180C475.25,-180 409,-180 409,-180 403,-180 397,-174 397,-168 397,-168 397,-156 397,-156 397,-150 403,-144 409,-144 409,-144 475.25,-144 475.25,-144 481.25,-144 487.25,-150 487.25,-156 487.25,-156 487.25,-168 487.25,-168 487.25,-174 481.25,-180 475.25,-180"/>
<text xml:space="preserve" text-anchor="middle" x="442.12" y="-158.12" font-family="sans" font-size="10.00">msa_per_domain</text>
</g>
<!-- 12&#45;&gt;16 -->
<g id="edge44" class="edge">
<title>12&#45;&gt;16</title>
<path fill="none" stroke="grey" stroke-width="2" d="M442.12,-215.34C442.12,-208.75 442.12,-201.08 442.12,-193.67"/>
<polygon fill="grey" stroke="grey" stroke-width="2" points="445.63,-193.93 442.13,-183.93 438.63,-193.93 445.63,-193.93"/>
</g>
<!-- 13 -->
<g id="node14" class="node">
<title>13</title>
<path fill="none" stroke="#5663d8" stroke-width="2" d="M688,-108C688,-108 596.25,-108 596.25,-108 590.25,-108 584.25,-102 584.25,-96 584.25,-96 584.25,-84 584.25,-84 584.25,-78 590.25,-72 596.25,-72 596.25,-72 688,-72 688,-72 694,-72 700,-78 700,-84 700,-84 700,-96 700,-96 700,-102 694,-108 688,-108"/>
<text xml:space="preserve" text-anchor="middle" x="642.12" y="-86.12" font-family="sans" font-size="10.00">split_query_by_domain</text>
</g>
<!-- 13&#45;&gt;0 -->
<g id="edge23" class="edge">
<title>13&#45;&gt;0</title>
<path fill="none" stroke="grey" stroke-width="2" d="M657.77,-71.34C664.4,-63.85 672.29,-54.95 679.66,-46.63"/>
<polygon fill="grey" stroke="grey" stroke-width="2" points="682.25,-48.97 686.26,-39.17 677.01,-44.33 682.25,-48.97"/>
</g>
<!-- 14&#45;&gt;0 -->
<g id="edge17" class="edge">
<title>14&#45;&gt;0</title>
<path fill="none" stroke="grey" stroke-width="2" d="M595.01,-143.27C579.09,-124.54 559.94,-94.66 575.12,-72 594.74,-42.74 633.71,-29.62 663.72,-23.75"/>
<polygon fill="grey" stroke="grey" stroke-width="2" points="664.1,-27.23 673.37,-22.09 662.92,-20.33 664.1,-27.23"/>
</g>
<!-- 14&#45;&gt;13 -->
<g id="edge42" class="edge">
<title>14&#45;&gt;13</title>
<path fill="none" stroke="grey" stroke-width="2" d="M619.7,-143.34C622.62,-136.51 626.05,-128.5 629.34,-120.83"/>
<polygon fill="grey" stroke="grey" stroke-width="2" points="632.54,-122.25 633.26,-111.68 626.1,-119.5 632.54,-122.25"/>
</g>
<!-- 15 -->
<g id="node16" class="node">
<title>15</title>
<path fill="none" stroke="#56d8a9" stroke-width="2" d="M804.38,-108C804.38,-108 729.88,-108 729.88,-108 723.88,-108 717.88,-102 717.88,-96 717.88,-96 717.88,-84 717.88,-84 717.88,-78 723.88,-72 729.88,-72 729.88,-72 804.38,-72 804.38,-72 810.38,-72 816.38,-78 816.38,-84 816.38,-84 816.38,-96 816.38,-96 816.38,-102 810.38,-108 804.38,-108"/>
<text xml:space="preserve" text-anchor="middle" x="767.12" y="-86.12" font-family="sans" font-size="10.00">meme_per_domain</text>
</g>
<!-- 15&#45;&gt;0 -->
<g id="edge3" class="edge">
<title>15&#45;&gt;0</title>
<path fill="none" stroke="grey" stroke-width="2" d="M751.23,-71.34C744.42,-63.77 736.3,-54.75 728.74,-46.35"/>
<polygon fill="grey" stroke="grey" stroke-width="2" points="731.55,-44.24 722.26,-39.15 726.35,-48.93 731.55,-44.24"/>
</g>
<!-- 16&#45;&gt;0 -->
<g id="edge25" class="edge">
<title>16&#45;&gt;0</title>
<path fill="none" stroke="grey" stroke-width="2" d="M430.52,-143.22C419.34,-123.62 406.39,-92.19 423.12,-72 453.19,-35.74 593.09,-24.11 663.47,-20.52"/>
<polygon fill="grey" stroke="grey" stroke-width="2" points="663.31,-24.04 673.14,-20.07 662.99,-17.04 663.31,-24.04"/>
</g>
<!-- 17 -->
<g id="node18" class="node">
<title>17</title>
<path fill="none" stroke="#56d8a2" stroke-width="2" d="M515.88,-108C515.88,-108 444.38,-108 444.38,-108 438.38,-108 432.38,-102 432.38,-96 432.38,-96 432.38,-84 432.38,-84 432.38,-78 438.38,-72 444.38,-72 444.38,-72 515.88,-72 515.88,-72 521.88,-72 527.88,-78 527.88,-84 527.88,-84 527.88,-96 527.88,-96 527.88,-102 521.88,-108 515.88,-108"/>
<text xml:space="preserve" text-anchor="middle" x="480.12" y="-86.12" font-family="sans" font-size="10.00">iqtree_per_domain</text>
</g>
<!-- 16&#45;&gt;17 -->
<g id="edge45" class="edge">
<title>16&#45;&gt;17</title>
<path fill="none" stroke="grey" stroke-width="2" d="M451.71,-143.34C455.51,-136.34 459.98,-128.12 464.23,-120.28"/>
<polygon fill="grey" stroke="grey" stroke-width="2" points="467.27,-122.02 468.96,-111.56 461.12,-118.68 467.27,-122.02"/>
</g>
<!-- 17&#45;&gt;0 -->
<g id="edge20" class="edge">
<title>17&#45;&gt;0</title>
<path fill="none" stroke="grey" stroke-width="2" d="M528.73,-73.81C569.31,-61.13 626.44,-43.28 664.34,-31.43"/>
<polygon fill="grey" stroke="grey" stroke-width="2" points="665.01,-34.89 673.51,-28.57 662.92,-28.21 665.01,-34.89"/>
</g>
<!-- 18 -->
<g id="node19" class="node">
<title>18</title>
<path fill="none" stroke="#70d856" stroke-width="2" d="M1014.25,-396C1014.25,-396 912,-396 912,-396 906,-396 900,-390 900,-384 900,-384 900,-372 900,-372 900,-366 906,-360 912,-360 912,-360 1014.25,-360 1014.25,-360 1020.25,-360 1026.25,-366 1026.25,-372 1026.25,-372 1026.25,-384 1026.25,-384 1026.25,-390 1020.25,-396 1014.25,-396"/>
<text xml:space="preserve" text-anchor="middle" x="963.12" y="-374.12" font-family="sans" font-size="10.00">extract_mrna_for_domain</text>
</g>
<!-- 18&#45;&gt;0 -->
<g id="edge26" class="edge">
<title>18&#45;&gt;0</title>
<path fill="none" stroke="grey" stroke-width="2" d="M899.3,-366.32C873.67,-358.76 846.21,-345.89 829.12,-324 779.63,-260.58 794.35,-222.88 810.12,-144 816.54,-111.95 843.01,-99.36 825.12,-72 807.41,-44.91 772.45,-31.58 744.64,-25.07"/>
<polygon fill="grey" stroke="grey" stroke-width="2" points="745.53,-21.68 735.03,-23.08 744.11,-28.54 745.53,-21.68"/>
</g>
<!-- 20 -->
<g id="node21" class="node">
<title>20</title>
<path fill="none" stroke="#56d892" stroke-width="2" d="M921.88,-324C921.88,-324 850.38,-324 850.38,-324 844.38,-324 838.38,-318 838.38,-312 838.38,-312 838.38,-300 838.38,-300 838.38,-294 844.38,-288 850.38,-288 850.38,-288 921.88,-288 921.88,-288 927.88,-288 933.88,-294 933.88,-300 933.88,-300 933.88,-312 933.88,-312 933.88,-318 927.88,-324 921.88,-324"/>
<text xml:space="preserve" text-anchor="middle" x="886.12" y="-302.12" font-family="sans" font-size="10.00">gmap_per_domain</text>
</g>
<!-- 18&#45;&gt;20 -->
<g id="edge46" class="edge">
<title>18&#45;&gt;20</title>
<path fill="none" stroke="grey" stroke-width="2" d="M943.69,-359.34C935.1,-351.52 924.8,-342.16 915.31,-333.53"/>
<polygon fill="grey" stroke="grey" stroke-width="2" points="917.81,-331.07 908.06,-326.94 913.1,-336.25 917.81,-331.07"/>
</g>
<!-- 21 -->
<g id="node22" class="node">
<title>21</title>
<path fill="none" stroke="#c6d856" stroke-width="2" d="M1156.88,-252C1156.88,-252 1043.38,-252 1043.38,-252 1037.38,-252 1031.38,-246 1031.38,-240 1031.38,-240 1031.38,-228 1031.38,-228 1031.38,-222 1037.38,-216 1043.38,-216 1043.38,-216 1156.88,-216 1156.88,-216 1162.88,-216 1168.88,-222 1168.88,-228 1168.88,-228 1168.88,-240 1168.88,-240 1168.88,-246 1162.88,-252 1156.88,-252"/>
<text xml:space="preserve" text-anchor="middle" x="1100.12" y="-230.12" font-family="sans" font-size="10.00">design_primers_per_domain</text>
</g>
<!-- 18&#45;&gt;21 -->
<g id="edge47" class="edge">
<title>18&#45;&gt;21</title>
<path fill="none" stroke="grey" stroke-width="2" d="M980.48,-359.02C1004.05,-334.58 1046.4,-290.69 1073.87,-262.21"/>
<polygon fill="grey" stroke="grey" stroke-width="2" points="1076.39,-264.64 1080.81,-255.02 1071.35,-259.78 1076.39,-264.64"/>
</g>
<!-- 26 -->
<g id="node27" class="node">
<title>26</title>
<path fill="none" stroke="#bed856" stroke-width="2" d="M1226.62,-324C1226.62,-324 1123.62,-324 1123.62,-324 1117.62,-324 1111.62,-318 1111.62,-312 1111.62,-312 1111.62,-300 1111.62,-300 1111.62,-294 1117.62,-288 1123.62,-288 1123.62,-288 1226.62,-288 1226.62,-288 1232.62,-288 1238.62,-294 1238.62,-300 1238.62,-300 1238.62,-312 1238.62,-312 1238.62,-318 1232.62,-324 1226.62,-324"/>
<text xml:space="preserve" text-anchor="middle" x="1175.12" y="-302.12" font-family="sans" font-size="10.00">discover_and_score_grna</text>
</g>
<!-- 18&#45;&gt;26 -->
<g id="edge52" class="edge">
<title>18&#45;&gt;26</title>
<path fill="none" stroke="grey" stroke-width="2" d="M1017.44,-359.06C1045.25,-349.88 1079.33,-338.63 1108.69,-328.94"/>
<polygon fill="grey" stroke="grey" stroke-width="2" points="1109.67,-332.3 1118.07,-325.84 1107.48,-325.65 1109.67,-332.3"/>
</g>
<!-- 19 -->
<g id="node20" class="node">
<title>19</title>
<path fill="none" stroke="#d8cb56" stroke-width="2" d="M1404.88,-108C1404.88,-108 1237.38,-108 1237.38,-108 1231.38,-108 1225.38,-102 1225.38,-96 1225.38,-96 1225.38,-84 1225.38,-84 1225.38,-78 1231.38,-72 1237.38,-72 1237.38,-72 1404.88,-72 1404.88,-72 1410.88,-72 1416.88,-78 1416.88,-84 1416.88,-84 1416.88,-96 1416.88,-96 1416.88,-102 1410.88,-108 1404.88,-108"/>
<text xml:space="preserve" text-anchor="middle" x="1321.12" y="-86.12" font-family="sans" font-size="10.00">compute_protein_properties_per_domain</text>
</g>
<!-- 19&#45;&gt;0 -->
<g id="edge14" class="edge">
<title>19&#45;&gt;0</title>
<path fill="none" stroke="grey" stroke-width="2" d="M1224.58,-73.81C1220.04,-73.18 1215.53,-72.57 1211.12,-72 1038.05,-49.59 830.77,-30.26 744.69,-22.56"/>
<polygon fill="grey" stroke="grey" stroke-width="2" points="745.22,-19.09 734.95,-21.69 744.6,-26.06 745.22,-19.09"/>
</g>
<!-- 20&#45;&gt;0 -->
<g id="edge21" class="edge">
<title>20&#45;&gt;0</title>
<path fill="none" stroke="grey" stroke-width="2" d="M872.64,-287.16C856.01,-263.94 828.66,-221.42 818.12,-180 814.18,-164.49 811.62,-158.62 818.12,-144 827.86,-122.15 848.39,-129.85 858.12,-108 864.63,-93.38 867.42,-85.03 858.12,-72 832.53,-36.12 781.02,-24.29 744.63,-20.52"/>
<polygon fill="grey" stroke="grey" stroke-width="2" points="745.26,-17.06 735.01,-19.71 744.68,-24.03 745.26,-17.06"/>
</g>
<!-- 22 -->
<g id="node23" class="node">
<title>22</title>
<path fill="none" stroke="#afd856" stroke-width="2" d="M969.12,-180C969.12,-180 839.12,-180 839.12,-180 833.12,-180 827.12,-174 827.12,-168 827.12,-168 827.12,-156 827.12,-156 827.12,-150 833.12,-144 839.12,-144 839.12,-144 969.12,-144 969.12,-144 975.12,-144 981.12,-150 981.12,-156 981.12,-156 981.12,-168 981.12,-168 981.12,-174 975.12,-180 969.12,-180"/>
<text xml:space="preserve" text-anchor="middle" x="904.12" y="-158.12" font-family="sans" font-size="10.00">extract_annotations_by_domain</text>
</g>
<!-- 20&#45;&gt;22 -->
<g id="edge48" class="edge">
<title>20&#45;&gt;22</title>
<path fill="none" stroke="grey" stroke-width="2" d="M883.62,-287.1C881.58,-269.01 879.69,-240.33 884.12,-216 885.55,-208.19 888.06,-200.04 890.84,-192.53"/>
<polygon fill="grey" stroke="grey" stroke-width="2" points="893.99,-194.08 894.48,-183.5 887.5,-191.47 893.99,-194.08"/>
</g>
<!-- 23 -->
<g id="node24" class="node">
<title>23</title>
<path fill="none" stroke="#56d863" stroke-width="2" d="M1000.88,-252C1000.88,-252 905.38,-252 905.38,-252 899.38,-252 893.38,-246 893.38,-240 893.38,-240 893.38,-228 893.38,-228 893.38,-222 899.38,-216 905.38,-216 905.38,-216 1000.88,-216 1000.88,-216 1006.88,-216 1012.88,-222 1012.88,-228 1012.88,-228 1012.88,-240 1012.88,-240 1012.88,-246 1006.88,-252 1000.88,-252"/>
<text xml:space="preserve" text-anchor="middle" x="953.12" y="-230.12" font-family="sans" font-size="10.00">extract_selected_genes</text>
</g>
<!-- 20&#45;&gt;23 -->
<g id="edge49" class="edge">
<title>20&#45;&gt;23</title>
<path fill="none" stroke="grey" stroke-width="2" d="M903.03,-287.34C910.36,-279.69 919.09,-270.56 927.21,-262.08"/>
<polygon fill="grey" stroke="grey" stroke-width="2" points="929.51,-264.73 933.9,-255.09 924.45,-259.89 929.51,-264.73"/>
</g>
<!-- 21&#45;&gt;0 -->
<g id="edge24" class="edge">
<title>21&#45;&gt;0</title>
<path fill="none" stroke="grey" stroke-width="2" d="M1118.28,-215.12C1126.67,-205.58 1135.73,-193.12 1140.12,-180 1155.37,-134.49 1171.95,-107.93 1140.12,-72 1114.12,-42.64 848.25,-26.24 744.9,-20.93"/>
<polygon fill="grey" stroke="grey" stroke-width="2" points="745.19,-17.44 735.03,-20.43 744.84,-24.43 745.19,-17.44"/>
</g>
<!-- 22&#45;&gt;0 -->
<g id="edge18" class="edge">
<title>22&#45;&gt;0</title>
<path fill="none" stroke="grey" stroke-width="2" d="M907.97,-143.06C911.09,-123.32 912.63,-91.77 896.12,-72 876.85,-48.91 795.12,-32.73 744.71,-24.73"/>
<polygon fill="grey" stroke="grey" stroke-width="2" points="745.42,-21.3 735,-23.24 744.36,-28.21 745.42,-21.3"/>
</g>
<!-- 23&#45;&gt;0 -->
<g id="edge11" class="edge">
<title>23&#45;&gt;0</title>
<path fill="none" stroke="grey" stroke-width="2" d="M969.55,-215.37C977.42,-205.71 986.02,-193.06 990.12,-180 994.93,-164.74 996.3,-158.76 990.12,-144 972.54,-101.96 956.87,-94.29 917.12,-72 862.31,-41.25 789.71,-28.12 745,-22.68"/>
<polygon fill="grey" stroke="grey" stroke-width="2" points="745.4,-19.2 735.07,-21.56 744.62,-26.16 745.4,-19.2"/>
</g>
<!-- 24 -->
<g id="node25" class="node">
<title>24</title>
<path fill="none" stroke="#59d856" stroke-width="2" d="M1119.5,-180C1119.5,-180 1048.75,-180 1048.75,-180 1042.75,-180 1036.75,-174 1036.75,-168 1036.75,-168 1036.75,-156 1036.75,-156 1036.75,-150 1042.75,-144 1048.75,-144 1048.75,-144 1119.5,-144 1119.5,-144 1125.5,-144 1131.5,-150 1131.5,-156 1131.5,-156 1131.5,-168 1131.5,-168 1131.5,-174 1125.5,-180 1119.5,-180"/>
<text xml:space="preserve" text-anchor="middle" x="1084.12" y="-158.12" font-family="sans" font-size="10.00">extract_promoters</text>
</g>
<!-- 23&#45;&gt;24 -->
<g id="edge50" class="edge">
<title>23&#45;&gt;24</title>
<path fill="none" stroke="grey" stroke-width="2" d="M986.52,-215.15C1002.69,-206.52 1022.32,-196.02 1039.73,-186.72"/>
<polygon fill="grey" stroke="grey" stroke-width="2" points="1040.95,-190.04 1048.12,-182.24 1037.65,-183.87 1040.95,-190.04"/>
</g>
<!-- 24&#45;&gt;0 -->
<g id="edge8" class="edge">
<title>24&#45;&gt;0</title>
<path fill="none" stroke="grey" stroke-width="2" d="M1065.99,-143.34C1040.54,-118.73 996.32,-76.6 987.12,-72 907.45,-32.15 801.56,-22.1 744.56,-19.67"/>
<polygon fill="grey" stroke="grey" stroke-width="2" points="744.98,-16.18 734.86,-19.33 744.73,-23.18 744.98,-16.18"/>
</g>
<!-- 25 -->
<g id="node26" class="node">
<title>25</title>
<path fill="none" stroke="#56d8b9" stroke-width="2" d="M1119,-108C1119,-108 1051.25,-108 1051.25,-108 1045.25,-108 1039.25,-102 1039.25,-96 1039.25,-96 1039.25,-84 1039.25,-84 1039.25,-78 1045.25,-72 1051.25,-72 1051.25,-72 1119,-72 1119,-72 1125,-72 1131,-78 1131,-84 1131,-84 1131,-96 1131,-96 1131,-102 1125,-108 1119,-108"/>
<text xml:space="preserve" text-anchor="middle" x="1085.12" y="-86.12" font-family="sans" font-size="10.00">meme_promoters</text>
</g>
<!-- 24&#45;&gt;25 -->
<g id="edge51" class="edge">
<title>24&#45;&gt;25</title>
<path fill="none" stroke="grey" stroke-width="2" d="M1084.38,-143.34C1084.47,-136.75 1084.58,-129.08 1084.69,-121.67"/>
<polygon fill="grey" stroke="grey" stroke-width="2" points="1088.18,-121.98 1084.83,-111.93 1081.18,-121.88 1088.18,-121.98"/>
</g>
<!-- 25&#45;&gt;0 -->
<g id="edge9" class="edge">
<title>25&#45;&gt;0</title>
<path fill="none" stroke="grey" stroke-width="2" d="M1038.42,-75.22C1033.94,-74.06 1029.46,-72.97 1025.12,-72 925.19,-49.67 805.82,-32.39 744.65,-24.2"/>
<polygon fill="grey" stroke="grey" stroke-width="2" points="745.18,-20.74 734.81,-22.9 744.26,-27.68 745.18,-20.74"/>
</g>
<!-- 26&#45;&gt;0 -->
<g id="edge1" class="edge">
<title>26&#45;&gt;0</title>
<path fill="none" stroke="grey" stroke-width="2" d="M1181.13,-287.02C1194.48,-243.27 1221.08,-130.61 1163.12,-72 1133.92,-42.46 851.46,-26.03 744.71,-20.83"/>
<polygon fill="grey" stroke="grey" stroke-width="2" points="745.19,-17.35 735.03,-20.37 744.86,-24.34 745.19,-17.35"/>
</g>
<!-- 27 -->
<g id="node28" class="node">
<title>27</title>
<path fill="none" stroke="#56d8d8" stroke-width="2" d="M1521.38,-108C1521.38,-108 1446.88,-108 1446.88,-108 1440.88,-108 1434.88,-102 1434.88,-96 1434.88,-96 1434.88,-84 1434.88,-84 1434.88,-78 1440.88,-72 1446.88,-72 1446.88,-72 1521.38,-72 1521.38,-72 1527.38,-72 1533.38,-78 1533.38,-84 1533.38,-84 1533.38,-96 1533.38,-96 1533.38,-102 1527.38,-108 1521.38,-108"/>
<text xml:space="preserve" text-anchor="middle" x="1484.12" y="-86.12" font-family="sans" font-size="10.00">plot_chromosomes</text>
</g>
<!-- 27&#45;&gt;0 -->
<g id="edge2" class="edge">
<title>27&#45;&gt;0</title>
<path fill="none" stroke="grey" stroke-width="2" d="M1433.98,-73.6C1431.34,-73.01 1428.71,-72.47 1426.12,-72 1169.69,-25.55 855,-19.58 744.65,-18.98"/>
<polygon fill="grey" stroke="grey" stroke-width="2" points="744.97,-15.48 734.96,-18.95 744.95,-22.48 744.97,-15.48"/>
</g>
<!-- 28 -->
<g id="node29" class="node">
<title>28</title>
<path fill="none" stroke="#56c9d8" stroke-width="2" d="M1640.88,-108C1640.88,-108 1563.38,-108 1563.38,-108 1557.38,-108 1551.38,-102 1551.38,-96 1551.38,-96 1551.38,-84 1551.38,-84 1551.38,-78 1557.38,-72 1563.38,-72 1563.38,-72 1640.88,-72 1640.88,-72 1646.88,-72 1652.88,-78 1652.88,-84 1652.88,-84 1652.88,-96 1652.88,-96 1652.88,-102 1646.88,-108 1640.88,-108"/>
<text xml:space="preserve" text-anchor="middle" x="1602.12" y="-86.12" font-family="sans" font-size="10.00">plot_gene_structure</text>
</g>
<!-- 28&#45;&gt;0 -->
<g id="edge5" class="edge">
<title>28&#45;&gt;0</title>
<path fill="none" stroke="grey" stroke-width="2" d="M1550.57,-73.64C1547.73,-73.03 1544.9,-72.48 1542.12,-72 1239.13,-20.1 866.7,-17.74 744.82,-18.52"/>
<polygon fill="grey" stroke="grey" stroke-width="2" points="744.86,-15.02 734.89,-18.6 744.92,-22.02 744.86,-15.02"/>
</g>
<!-- 29 -->
<g id="node30" class="node">
<title>29</title>
<path fill="none" stroke="#d88556" stroke-width="2" d="M1789.12,-108C1789.12,-108 1683.12,-108 1683.12,-108 1677.12,-108 1671.12,-102 1671.12,-96 1671.12,-96 1671.12,-84 1671.12,-84 1671.12,-78 1677.12,-72 1683.12,-72 1683.12,-72 1789.12,-72 1789.12,-72 1795.12,-72 1801.12,-78 1801.12,-84 1801.12,-84 1801.12,-96 1801.12,-96 1801.12,-102 1795.12,-108 1789.12,-108"/>
<text xml:space="preserve" text-anchor="middle" x="1736.12" y="-86.12" font-family="sans" font-size="10.00">calculate_extra_properties</text>
</g>
<!-- 29&#45;&gt;0 -->
<g id="edge16" class="edge">
<title>29&#45;&gt;0</title>
<path fill="none" stroke="grey" stroke-width="2" d="M1670.47,-73.3C1667.66,-72.83 1664.87,-72.39 1662.12,-72 1309.69,-22.14 878.13,-18.59 745.1,-18.78"/>
<polygon fill="grey" stroke="grey" stroke-width="2" points="745.14,-15.28 735.14,-18.8 745.15,-22.28 745.14,-15.28"/>
</g>
</g>
</svg>
